<svg xmlns="http://www.w3.org/2000/svg" xmlns:xlink="http://www.w3.org/1999/xlink" width="16" height="112" viewBox="0 0 16 112"><svg viewBox="0 0 224.512 224.512" width="16" height="16" id="close" y="0"><path fill="#767676" d="M224.507 6.997L217.52 0 112.257 105.258 6.998 0 .005 6.997l105.258 105.257L.005 217.512l6.993 7L112.256 119.24 217.52 224.512l6.987-7L119.25 112.254"></path></svg><svg width="16" height="16" viewBox="0 0 96.124 96.123" id="facebook" y="16"><path d="M72.09.02L59.623 0C45.62 0 36.57 9.285 36.57 23.656v10.907H24.037a1.96 1.96 0 0 0-1.96 1.96v15.804a1.96 1.96 0 0 0 1.96 1.96H36.57v39.876a1.96 1.96 0 0 0 1.96 1.96h16.352a1.96 1.96 0 0 0 1.96-1.96V54.287h14.654a1.96 1.96 0 0 0 1.96-1.96l.006-15.803a1.963 1.963 0 0 0-1.961-1.961H56.843v-9.246c0-4.444 1.06-6.7 6.848-6.7l8.397-.003a1.96 1.96 0 0 0 1.96-1.96V1.98c0-1.08-.877-1.958-1.958-1.96z" fill="#FFF"></path></svg><svg viewBox="0 0 491.858 491.858" width="16" height="16" id="google-plus" y="32"><path d="M377.472 224.957H201.32v58.718h107.47c-16.032 51.048-63.714 88.077-120.055 88.077-69.492 0-125.823-56.335-125.823-125.824 0-69.492 56.333-125.823 125.823-125.823 34.994 0 66.645 14.29 89.452 37.346l42.622-46.327c-34.04-33.355-80.65-53.93-132.075-53.93C84.5 57.194 0 141.694 0 245.93s84.5 188.737 188.736 188.737c91.307 0 171.248-64.844 188.737-150.99V224.96zm114.386-.1h-36.03v-36.03H424.94v36.03h-36.03v30.883h36.03v36.032h30.887V255.74h36.03" fill="#FFF"></path></svg><svg viewBox="0 0 512 512" width="16" height="16" id="key" y="48"><path d="M434.427 77.608c-7.782-7.782-18.128-12.068-29.134-12.068s-21.352 4.286-29.135 12.068c-7.782 7.782-12.067 18.13-12.067 29.134s4.286 21.352 12.068 29.134 18.128 12.068 29.135 12.068c11.006 0 21.352-4.286 29.135-12.068 16.064-16.064 16.064-42.203 0-58.268zm-10.617 47.65c-4.946 4.947-11.523 7.67-18.517 7.67-6.996.002-13.57-2.723-18.518-7.67-4.946-4.945-7.67-11.522-7.67-18.516 0-6.995 2.724-13.57 7.67-18.518 4.947-4.946 11.524-7.67 18.518-7.67 6.995 0 13.57 2.724 18.516 7.67 4.946 4.947 7.67 11.523 7.67 18.518s-2.723 13.57-7.67 18.517z" fill="#ccc"></path><path d="M467 45.035C441.066 19.1 406.672 3.27 370.152.455c-36.107-2.78-72.13 7.253-101.407 28.262a7.507 7.507 0 1 0 8.755 12.198c26.406-18.95 58.903-28 91.5-25.49 32.948 2.538 63.982 16.825 87.383 40.226 54.1 54.1 54.1 142.13 0 196.23-26.207 26.206-61.052 40.64-98.114 40.64-22.65 0-44.467-5.4-63.994-15.574-.104-.06-.202-.13-.31-.186a137.937 137.937 0 0 1-21.874-14.235c-.093-.074-.186-.15-.28-.223a140.385 140.385 0 0 1-7.48-6.424c-.25-.232-.5-.465-.75-.7a134.807 134.807 0 0 1-3.427-3.3 136.411 136.411 0 0 1-3.255-3.38c-.228-.243-.458-.485-.684-.73a137.538 137.538 0 0 1-7.633-9.033c-.37-.477-.737-.956-1.1-1.438-15.935-21.13-25.59-46.497-27.58-73.114-2.45-32.727 6.748-65.3 25.895-91.717a7.506 7.506 0 1 0-12.156-8.811c-21.23 29.287-31.425 65.387-28.713 101.65a153.56 153.56 0 0 0 14.588 54.727L5.548 434.002a15.268 15.268 0 0 0-4.485 10.534L.038 496.37a15.39 15.39 0 0 0 4.486 11.14A15.402 15.402 0 0 0 15.367 512c.1 0 .198 0 .298-.003l51.833-1.026a15.253 15.253 0 0 0 10.535-4.485l9.53-9.53a15.267 15.267 0 0 0 4.265-8.235l6.232-36.192a.316.316 0 0 1 .256-.256l33.198-5.718a15.357 15.357 0 0 0 12.503-12.503l5.717-33.196a.315.315 0 0 1 .256-.256l36.19-6.234a15.231 15.231 0 0 0 8.237-4.267l16.247-16.245a7.508 7.508 0 0 0-10.616-10.616L183.8 379.482a.31.31 0 0 1-.167.086l-36.192 6.234a15.358 15.358 0 0 0-12.502 12.503l-5.718 33.197a.315.315 0 0 1-.255.256l-33.198 5.718a15.357 15.357 0 0 0-12.503 12.503l-6.232 36.19a.328.328 0 0 1-.088.17l-9.528 9.528a.315.315 0 0 1-.216.092l-51.833 1.026c-.055-.003-.134 0-.228-.09-.095-.095-.093-.185-.093-.23l.365-18.455 225.323-225.32c.215.254.42.515.637.767.467.546.933 1.092 1.408 1.633.386.44.777.873 1.17 1.307.582.648 1.17 1.292 1.766 1.93a157.144 157.144 0 0 0 3.821 3.973 160.47 160.47 0 0 0 3.08 2.992c.283.267.57.528.854.793.787.734 1.58 1.46 2.378 2.177.287.257.576.51.865.765.865.763 1.738 1.516 2.618 2.258.197.165.393.332.59.496a153.98 153.98 0 0 0 18.267 13.116l-44.767 44.768a7.51 7.51 0 0 0 0 10.616 7.51 7.51 0 0 0 10.617 0l47.902-47.903c20.445 9.788 42.987 14.96 66.327 14.96 41.073 0 79.687-15.996 108.73-45.04 59.956-59.955 59.956-157.507.003-217.462zM231.53 240.86L15.844 456.547l.232-11.714a.314.314 0 0 1 .092-.216l210.786-210.786c1.46 2.39 2.993 4.733 4.586 7.037l-.01-.01z" fill="#ccc"></path></svg><svg viewBox="0 0 31.012 31.012" width="16" height="16" id="mail" y="64"><g fill="#ccc"><path d="M25.11 21.51a.496.496 0 0 1-.343-.136l-5.754-5.398a.501.501 0 0 1 .686-.728l5.754 5.398a.501.501 0 0 1-.343.864zm-19.208 0a.5.5 0 0 1-.343-.864l5.755-5.398a.5.5 0 0 1 .685.728l-5.756 5.398a.502.502 0 0 1-.342.136z"></path><path d="M28.512 26.53H2.5a2.503 2.503 0 0 1-2.5-2.5V6.98c0-1.38 1.122-2.5 2.5-2.5h26.012c1.378 0 2.5 1.12 2.5 2.5v17.05c0 1.378-1.122 2.5-2.5 2.5zM2.5 5.48c-.827 0-1.5.673-1.5 1.5v17.05c0 .826.673 1.5 1.5 1.5h26.012c.827 0 1.5-.674 1.5-1.5V6.98c0-.827-.673-1.5-1.5-1.5H2.5z"></path><path d="M15.506 18.018c-.665 0-1.33-.22-1.836-.662L.83 6.156a.505.505 0 0 1-.05-.708c.184-.21.5-.228.707-.05l12.84 11.2c.64.558 1.72.558 2.357 0L29.508 5.42a.5.5 0 1 1 .658.753L17.342 17.355c-.507.442-1.17.663-1.836.663z"></path></g></svg><svg viewBox="0 0 612 612" width="16" height="16" id="twitter" y="80"><path d="M612 116.258a250.746 250.746 0 0 1-72.088 19.772c25.93-15.527 45.777-40.155 55.184-69.41-24.322 14.378-51.17 24.82-79.775 30.48-22.906-24.438-55.49-39.66-91.63-39.66-69.333 0-125.55 56.218-125.55 125.514 0 9.828 1.11 19.427 3.25 28.606-104.325-5.24-196.834-55.223-258.75-131.174-10.822 18.51-16.98 40.078-16.98 63.1 0 43.56 22.182 81.994 55.836 104.48A125.556 125.556 0 0 1 24.63 232.21v1.568c0 60.806 43.29 111.554 100.692 123.104-10.517 2.83-21.607 4.398-33.08 4.398-8.107 0-15.947-.803-23.634-2.333 15.985 49.907 62.336 86.2 117.253 87.194-42.946 33.655-97.098 53.656-155.915 53.656-10.134 0-20.116-.612-29.944-1.72 55.568 35.68 121.537 56.484 192.44 56.484 230.947 0 357.187-191.29 357.187-357.188l-.42-16.253c24.661-17.595 46.001-39.7 62.791-64.863z" fill="#FFF"></path></svg><svg viewBox="0 0 60 60" width="16" height="16" id="user" y="96"><path d="M48.014 42.89l-9.553-4.777a2.63 2.63 0 0 1-1.46-2.365v-3.38c.23-.28.47-.6.72-.952a22.938 22.938 0 0 0 2.953-5.8A3.966 3.966 0 0 0 43 22v-4c0-.963-.36-1.896-1-2.625v-5.32c.056-.55.276-3.823-2.092-6.524C37.854 1.19 34.52 0 30 0s-7.854 1.188-9.908 3.53c-2.368 2.7-2.148 5.976-2.092 6.526v5.32c-.64.728-1 1.66-1 2.624v4a3.98 3.98 0 0 0 1.497 3.11c.916 3.626 2.833 6.36 3.503 7.236v3.31c0 .967-.528 1.855-1.377 2.32l-8.92 4.865A9.018 9.018 0 0 0 7 50.763V54c0 4.746 15.045 6 23 6s23-1.254 23-6v-3.043c0-3.438-1.91-6.53-4.986-8.068zM51 54c0 1.357-7.412 4-21 4S9 55.357 9 54v-3.238a7.016 7.016 0 0 1 3.66-6.164l8.92-4.866A4.644 4.644 0 0 0 24 35.655v-4.02l-.233-.277c-.024-.03-2.475-2.994-3.41-7.065l-.09-.396-.342-.22c-.58-.374-.925-1-.925-1.677v-4c0-.56.238-1.084.67-1.475l.33-.297V10l-.01-.13c-.002-.028-.342-2.8 1.606-5.022C23.253 2.958 26.08 2 30 2c3.905 0 6.727.95 8.386 2.828 1.947 2.2 1.625 5.017 1.623 5.04L40 16.23l.33.298c.432.39.67.913.67 1.474v4a1.99 1.99 0 0 1-1.422 1.9l-.498.152-.16.495a20.977 20.977 0 0 1-2.834 5.713c-.297.42-.586.794-.837 1.08l-.25.283v4.125c0 1.77.983 3.36 2.566 4.153l9.553 4.777a6.983 6.983 0 0 1 3.88 6.28V54z" fill="#ccc"></path></svg></svg>