<svg xmlns="http://www.w3.org/2000/svg" viewBox="0 0 512 512" width="16" height="16"><path d="M434.427 77.608c-7.782-7.782-18.128-12.068-29.134-12.068s-21.352 4.286-29.135 12.068c-7.782 7.782-12.067 18.13-12.067 29.134s4.286 21.352 12.068 29.134 18.128 12.068 29.135 12.068c11.006 0 21.352-4.286 29.135-12.068 16.064-16.064 16.064-42.203 0-58.268zm-10.617 47.65c-4.946 4.947-11.523 7.67-18.517 7.67-6.996.002-13.57-2.723-18.518-7.67-4.946-4.945-7.67-11.522-7.67-18.516 0-6.995 2.724-13.57 7.67-18.518 4.947-4.946 11.524-7.67 18.518-7.67 6.995 0 13.57 2.724 18.516 7.67 4.946 4.947 7.67 11.523 7.67 18.518s-2.723 13.57-7.67 18.517z" fill="#ccc"/><path d="M467 45.035C441.066 19.1 406.672 3.27 370.152.455c-36.107-2.78-72.13 7.253-101.407 28.262-3.368 2.417-4.14 7.108-1.722 10.476 2.42 3.368 7.11 4.138 10.477 1.722 26.406-18.95 58.903-28 91.5-25.49 32.948 2.538 63.982 16.825 87.383 40.226 54.1 54.1 54.1 142.13 0 196.23-26.207 26.206-61.052 40.64-98.114 40.64-22.65 0-44.467-5.4-63.994-15.574-.104-.06-.202-.13-.31-.186-7.724-4.04-15.04-8.806-21.874-14.235-.093-.074-.186-.15-.28-.223-2.563-2.047-5.056-4.192-7.48-6.424-.25-.232-.5-.465-.75-.7-1.158-1.08-2.304-2.176-3.427-3.3-1.108-1.107-2.188-2.238-3.255-3.38-.228-.243-.458-.485-.684-.73-.957-1.037-1.894-2.09-2.817-3.154-.343-.395-.682-.793-1.02-1.19-.69-.815-1.368-1.638-2.04-2.467-.594-.735-1.178-1.476-1.756-2.222-.37-.477-.737-.956-1.1-1.438-15.935-21.13-25.59-46.497-27.58-73.114-2.45-32.727 6.748-65.3 25.895-91.717 2.433-3.357 1.683-8.05-1.673-10.484-3.356-2.432-8.05-1.685-10.483 1.673-21.23 29.287-31.425 65.387-28.713 101.65 1.432 19.126 6.438 37.667 14.588 54.727L5.548 434.002c-2.812 2.815-4.406 6.556-4.485 10.534L.038 496.37c-.083 4.147 1.552 8.208 4.486 11.14 2.863 2.864 6.8 4.49 10.843 4.49.1 0 .198 0 .298-.003l51.833-1.026c3.978-.078 7.72-1.67 10.535-4.485l9.53-9.53c2.248-2.25 3.723-5.097 4.265-8.235l6.232-36.192c.022-.13.126-.233.256-.256l33.198-5.718c6.38-1.1 11.403-6.123 12.503-12.503l5.717-33.196c.022-.13.125-.233.256-.256l36.19-6.234c3.14-.54 5.988-2.016 8.237-4.267l16.247-16.245c2.93-2.93 2.93-7.684 0-10.616-2.93-2.93-7.685-2.932-10.616 0L183.8 379.482c-.045.045-.103.075-.167.086l-36.192 6.234c-6.378 1.1-11.402 6.123-12.502 12.503l-5.718 33.197c-.022.13-.125.233-.255.256l-33.198 5.718c-6.38 1.1-11.403 6.123-12.503 12.503l-6.232 36.19c-.012.064-.043.125-.088.17l-9.528 9.528c-.058.058-.135.09-.216.092l-51.833 1.026c-.055-.003-.134 0-.228-.09-.095-.095-.093-.185-.093-.23l.365-18.455L240.735 252.89c.215.254.42.515.637.767.467.546.933 1.092 1.408 1.633.386.44.777.873 1.17 1.307.582.648 1.17 1.292 1.766 1.93.324.35.647.698.975 1.043.937.987 1.882 1.966 2.846 2.93 1.015 1.015 2.044 2.01 3.08 2.992.283.267.57.528.854.793.787.734 1.58 1.46 2.378 2.177.287.257.576.51.865.765.865.763 1.738 1.516 2.618 2.258.197.165.393.332.59.496 5.8 4.842 11.905 9.22 18.267 13.116l-44.767 44.768c-2.93 2.93-2.93 7.685 0 10.616 2.932 2.93 7.685 2.93 10.617 0l47.902-47.903c20.445 9.788 42.987 14.96 66.327 14.96 41.073 0 79.687-15.996 108.73-45.04 59.956-59.955 59.956-157.507.003-217.462zM231.53 240.86L15.844 456.547l.232-11.714c.002-.082.035-.16.092-.216l210.786-210.786c1.46 2.39 2.993 4.733 4.586 7.037l-.01-.01z" fill="#ccc"/></svg>