<svg xmlns="http://www.w3.org/2000/svg" viewBox="0 0 60 60" width="16" height="16"><path d="M48.014 42.89l-9.553-4.777c-.9-.45-1.46-1.357-1.46-2.365v-3.38c.23-.28.47-.6.72-.952 1.238-1.75 2.23-3.698 2.953-5.8C42.083 24.97 43 23.577 43 22v-4c0-.963-.36-1.896-1-2.625v-5.32c.056-.55.276-3.823-2.092-6.524C37.854 1.19 34.52 0 30 0s-7.854 1.188-9.908 3.53c-2.368 2.7-2.148 5.976-2.092 6.526v5.32c-.64.728-1 1.66-1 2.624v4c0 1.217.553 2.352 1.497 3.11.916 3.626 2.833 6.36 3.503 7.236v3.31c0 .967-.528 1.855-1.377 2.32l-8.92 4.865C8.8 44.425 7 47.46 7 50.763V54c0 4.746 15.045 6 23 6s23-1.254 23-6v-3.043c0-3.438-1.91-6.53-4.986-8.068zM51 54c0 1.357-7.412 4-21 4S9 55.357 9 54v-3.238c0-2.57 1.402-4.934 3.66-6.164l8.92-4.866c1.493-.815 2.42-2.378 2.42-4.077v-4.02l-.233-.277c-.024-.03-2.475-2.994-3.41-7.065l-.09-.396-.342-.22c-.58-.374-.925-1-.925-1.677v-4c0-.56.238-1.084.67-1.475l.33-.297V10l-.01-.13c-.002-.028-.342-2.8 1.606-5.022C23.253 2.958 26.08 2 30 2c3.905 0 6.727.95 8.386 2.828 1.947 2.2 1.625 5.017 1.623 5.04L40 16.23l.33.298c.432.39.67.913.67 1.474v4c0 .873-.572 1.637-1.422 1.9l-.498.152-.16.495c-.67 2.08-1.622 4.003-2.834 5.713-.297.42-.586.794-.837 1.08l-.25.283v4.125c0 1.77.983 3.36 2.566 4.153l9.553 4.777c2.393 1.197 3.88 3.603 3.88 6.28V54z" fill="#ccc"/></svg>